<?xml version="1.0" encoding="UTF-8"?>
<svg xmlns="http://www.w3.org/2000/svg" xmlns:xlink="http://www.w3.org/1999/xlink" width="512px" height="512px" viewBox="0 0 512 512" version="1.1">
<g id="surface1">
<path style=" stroke:none;fill-rule:nonzero;fill:rgb(0%,18.82353%,100%);fill-opacity:1;" d="M 511.453125 255.726562 C 511.453125 114.492188 396.960938 0 255.726562 0 C 114.492188 0 0 114.492188 0 255.726562 C 0 396.960938 114.492188 511.453125 255.726562 511.453125 C 396.960938 511.453125 511.453125 396.960938 511.453125 255.726562 Z M 511.453125 255.726562 "/>
<path style=" stroke:none;fill-rule:nonzero;fill:rgb(100%,100%,100%);fill-opacity:1;" d="M 324.6875 299.117188 C 307.84375 299.117188 288.832031 287.609375 279.535156 260.605469 L 279.535156 420.375 L 303.148438 420.375 L 303.148438 315.308594 C 310.503906 320.226562 318.054688 321.535156 324.710938 321.535156 C 331.367188 321.535156 338.917969 320.226562 346.277344 315.308594 L 346.277344 420.375 L 369.890625 420.375 L 369.890625 260.605469 C 360.589844 287.609375 341.53125 299.117188 324.6875 299.117188 Z M 389.207031 87.667969 L 389.207031 420.375 L 412.820312 420.375 L 412.820312 87.667969 Z M 133.375 332.28125 C 134.425781 339.542969 136.992188 345.589844 140.46875 350.507812 C 145.1875 357.179688 151.027344 359.863281 158.808594 359.679688 C 170.304688 359.410156 176.164062 349.519531 176.78125 337.253906 C 177.425781 324.40625 172.980469 310.371094 165.058594 299.394531 C 161.425781 294.363281 155.546875 287.890625 146.609375 280.007812 C 137.519531 294.152344 130.480469 312.214844 133.375 332.28125 Z M 236.605469 87.667969 L 260.214844 87.667969 L 260.214844 420.375 L 236.605469 420.375 L 236.605469 371.605469 C 226.78125 397.492188 207.21875 415.8125 181.363281 423.265625 C 176.097656 424.785156 168.375 426.035156 159.355469 426.035156 C 144.855469 426.035156 126.984375 422.804688 110.488281 412.265625 C 95.085938 402.429688 75.125 383.066406 69.808594 344.207031 C 64.625 306.324219 79.832031 273.5 96.761719 250.699219 L 113.851562 261.039062 C 99.507812 283.609375 88.378906 306.964844 92.921875 340.597656 C 95.957031 363.0625 106.796875 381.847656 123.21875 392.339844 C 136.28125 400.683594 150.050781 402.4375 159.304688 402.4375 C 164.984375 402.4375 170.640625 401.746094 174.8125 400.542969 C 193.6875 395.101562 207.9375 381.453125 214.9375 362.113281 C 224.507812 335.660156 219.367188 302.871094 201.515625 276.539062 C 191.519531 261.792969 168.746094 241.371094 155.113281 229.144531 C 151.378906 225.796875 148.15625 222.90625 146.59375 221.371094 C 122.660156 197.855469 113.835938 178.417969 117.078125 156.375 C 119.148438 142.304688 130.25 130.050781 143.480469 127.242188 C 154.886719 124.820312 166.273438 127.320312 176.414062 134.484375 C 191.078125 144.851562 201.335938 163.535156 205.144531 185.472656 L 185.597656 190.371094 C 182.570312 174.921875 174.757812 154.027344 156.792969 149.964844 C 152.820312 149.070312 147.945312 149.898438 144.980469 152.175781 C 137.789062 157.6875 139.457031 169.707031 142.480469 177.089844 C 146.824219 187.691406 155.121094 196.59375 163.167969 204.503906 C 164.34375 205.660156 167.6875 208.65625 170.917969 211.550781 C 190.441406 229.042969 210.398438 247.449219 221.121094 263.308594 C 227.742188 273.113281 232.925781 283.679688 236.605469 294.574219 L 236.605469 177.59375 L 222.074219 181.230469 C 217.242188 154.730469 205.960938 131.839844 187.5 118.796875 C 172.875 108.460938 156.273438 104.882812 139.484375 108.449219 C 129.121094 110.652344 119.265625 116.492188 111.734375 124.898438 C 104.449219 133.027344 99.597656 143.210938 98.070312 153.578125 C 93.886719 182.003906 104.699219 207.140625 133.125 235.074219 C 135.003906 236.921875 138.226562 239.808594 142.304688 243.46875 C 154.410156 254.320312 176.9375 274.519531 185.613281 287.320312 C 199.855469 308.328125 204.273438 335.121094 196.871094 355.574219 C 193.4375 365.054688 185.902344 377.238281 169.492188 381.96875 C 164.730469 383.34375 147.902344 385.308594 133.5625 376.148438 C 121.996094 368.757812 114.382812 354.429688 111.910156 337.667969 C 109.734375 322.921875 111.171875 295.40625 130.703125 267.109375 L 131.644531 265.914062 C 131.683594 265.945312 131.71875 265.976562 131.644531 265.914062 C 126.265625 261.058594 118.820312 254.171875 116.550781 251.941406 C 95.226562 230.988281 67.683594 197.632812 74.671875 150.136719 C 79.332031 118.476562 103.960938 91.824219 134.566406 85.316406 C 157.636719 80.410156 179.480469 85.585938 199.496094 99.410156 C 216.007812 110.816406 229.46875 129.832031 236.605469 156.847656 Z M 324.6875 279.519531 C 328.882812 279.519531 336.675781 278.085938 343.195312 269.832031 C 355.550781 254.183594 369.75 235.621094 369.75 87.667969 L 346.277344 87.667969 C 346.277344 131.785156 344.746094 172.789062 341.09375 201.585938 C 336.105469 240.894531 330.722656 256.046875 324.75 256.046875 C 318.78125 256.046875 313.609375 240.894531 308.332031 201.585938 C 304.46875 172.8125 303.148438 131.785156 303.148438 87.667969 L 279.671875 87.667969 C 279.671875 235.621094 293.605469 254.015625 306.230469 269.832031 C 312.5 277.6875 320.488281 279.519531 324.6875 279.519531 Z M 131.644531 265.914062 C 131.605469 265.878906 131.566406 265.84375 131.644531 265.914062 Z M 131.644531 265.914062 "/>
</g>
</svg>
